<?xml version="1.0" standalone="no"?>
<!DOCTYPE svg PUBLIC "-//W3C//DTD SVG 20010904//EN"
 "http://www.w3.org/TR/2001/REC-SVG-20010904/DTD/svg10.dtd">
<svg version="1.0" xmlns="http://www.w3.org/2000/svg"
 width="1200.000000pt" height="1200.000000pt" viewBox="0 0 1200.000000 1200.000000"
 preserveAspectRatio="xMidYMid meet">

<g transform="translate(0.000000,1200.000000) scale(0.100000,-0.100000)"
fill="#000000" stroke="none">
<path d="M2865 9487 c-168 -43 -287 -184 -303 -359 -4 -40 -4 -106 -1 -145 13
-138 98 -266 212 -319 142 -64 338 -41 427 51 l33 34 -40 48 c-74 87 -72 86
-123 52 -40 -28 -51 -30 -106 -27 -76 5 -121 36 -155 105 -30 61 -33 186 -6
255 45 116 179 159 277 88 24 -18 24 -18 70 33 76 85 77 87 49 110 -83 68
-229 101 -334 74z"/>
<path d="M5690 9060 l0 -420 110 0 110 0 0 165 0 165 90 0 90 0 0 -165 0 -165
110 0 110 0 0 420 0 420 -110 0 -110 0 0 -155 0 -155 -90 0 -90 0 0 155 0 155
-110 0 -110 0 0 -420z"/>
<path d="M3530 9279 c-62 -25 -146 -103 -173 -162 -40 -84 -41 -210 -4 -300 9
-20 35 -57 58 -82 159 -173 441 -133 550 77 35 66 38 203 9 282 -27 72 -92
141 -165 175 -73 35 -199 39 -275 10z m181 -169 c34 -19 49 -64 49 -147 0 -60
-5 -85 -20 -111 -37 -60 -108 -66 -154 -11 -47 56 -44 203 6 257 23 24 84 30
119 12z"/>
<path d="M6635 9281 c-33 -9 -82 -27 -108 -39 l-48 -22 38 -70 c21 -38 43 -70
49 -70 6 0 33 10 60 22 68 30 172 31 210 2 15 -11 29 -25 31 -30 2 -6 -35 -15
-90 -22 -167 -21 -262 -67 -298 -146 -33 -74 -19 -159 36 -217 41 -44 88 -61
164 -61 53 0 77 7 136 36 40 20 75 36 78 36 3 0 8 -13 12 -30 l7 -30 89 0 90
0 -3 233 c-3 259 -10 288 -78 354 -73 71 -237 94 -375 54z m235 -396 c0 -42
-2 -46 -40 -65 -54 -28 -135 -28 -150 0 -24 45 15 86 97 100 93 15 93 15 93
-35z"/>
<path d="M8238 9282 c-101 -37 -184 -122 -209 -215 -15 -58 -12 -172 6 -228
22 -65 92 -142 161 -174 100 -47 239 -49 355 -5 90 34 89 31 49 105 -25 48
-38 64 -50 60 -98 -39 -197 -41 -256 -4 -25 15 -54 55 -54 74 0 3 95 5 211 5
l211 0 -4 98 c-3 80 -9 106 -31 148 -32 63 -93 118 -155 138 -60 21 -174 20
-234 -2z m197 -177 c14 -13 25 -33 25 -45 0 -19 -6 -20 -110 -20 -73 0 -110 4
-110 11 0 6 15 26 34 45 30 30 40 34 85 34 42 0 57 -5 76 -25z"/>
<path d="M9120 9280 c-24 -12 -59 -32 -77 -46 l-32 -25 -7 28 c-3 15 -7 34
-10 41 -2 8 -30 12 -94 12 l-90 0 0 -325 0 -325 115 0 115 0 0 214 0 215 26
20 c35 27 104 29 127 3 15 -16 17 -48 17 -235 l0 -217 116 0 116 0 -4 248 c-3
242 -4 248 -29 303 -38 80 -75 103 -169 107 -59 2 -84 -2 -120 -18z"/>
<path d="M4180 9200 l0 -89 126 -3 125 -3 -145 -173 -146 -174 0 -59 0 -59
308 2 307 3 0 80 0 80 -154 5 -154 5 152 178 151 179 0 59 0 59 -285 0 -285 0
0 -90z"/>
<path d="M4894 9213 c18 -43 79 -182 135 -310 55 -128 101 -239 101 -247 0 -9
-13 -30 -29 -48 -26 -30 -35 -33 -88 -35 l-58 -1 -18 -78 c-15 -63 -16 -79 -5
-85 20 -13 155 -11 200 3 52 15 127 83 160 145 21 40 139 339 262 666 l25 68
-105 -3 -106 -3 -35 -110 c-19 -60 -49 -162 -68 -225 l-33 -115 -11 45 c-12
46 -85 264 -120 355 l-19 50 -111 3 -111 3 34 -78z"/>
<path d="M7236 9193 c19 -54 72 -200 117 -326 l81 -228 130 3 129 3 108 310
c59 171 108 316 109 323 0 9 -27 12 -103 12 l-103 0 -53 -182 c-29 -101 -60
-210 -70 -243 l-18 -60 -12 45 c-6 25 -37 133 -69 240 l-57 195 -113 3 -112 3
36 -98z"/>
<path d="M3030 7850 c0 -44 -3 -80 -7 -80 -5 0 -17 7 -27 15 -28 21 -85 18
-124 -5 -39 -24 -62 -73 -62 -132 0 -111 111 -172 195 -107 l25 20 0 -20 c0
-12 5 -21 10 -21 6 0 10 75 10 205 0 130 -4 205 -10 205 -6 0 -10 -33 -10 -80z
m-32 -90 c32 -20 32 -20 32 -100 0 -80 0 -80 -32 -100 -18 -11 -49 -20 -68
-20 -62 1 -90 39 -90 120 0 46 4 56 34 86 40 40 75 44 124 14z"/>
<path d="M4180 7921 c0 -6 24 -11 52 -13 l52 -3 1 -172 c1 -151 4 -175 19
-192 23 -25 65 -35 99 -22 42 16 32 27 -20 22 -71 -5 -73 1 -73 211 l0 178
-65 0 c-36 0 -65 -4 -65 -9z"/>
<path d="M4520 7921 c0 -6 24 -11 52 -13 l52 -3 1 -172 c1 -151 4 -175 19
-192 23 -25 65 -35 99 -22 42 16 32 27 -20 22 -71 -5 -73 1 -73 211 l0 178
-65 0 c-36 0 -65 -4 -65 -9z"/>
<path d="M7790 7850 c0 -44 -3 -80 -7 -80 -5 0 -17 7 -27 15 -28 21 -85 18
-124 -5 -39 -24 -62 -73 -62 -132 0 -111 111 -172 195 -107 l25 20 0 -20 c0
-12 5 -21 10 -21 6 0 10 75 10 205 0 130 -4 205 -10 205 -6 0 -10 -33 -10 -80z
m-32 -90 c32 -20 32 -20 32 -100 0 -80 0 -80 -32 -100 -18 -11 -49 -20 -68
-20 -62 1 -90 39 -90 120 0 46 4 56 34 86 40 40 75 44 124 14z"/>
<path d="M9150 7850 c0 -44 -3 -80 -7 -80 -5 0 -17 7 -27 15 -28 21 -85 18
-124 -5 -39 -24 -62 -73 -62 -132 0 -111 111 -172 195 -107 l25 20 0 -20 c0
-12 5 -21 10 -21 6 0 10 75 10 205 0 130 -4 205 -10 205 -6 0 -10 -33 -10 -80z
m-32 -90 c32 -20 32 -20 32 -100 0 -80 0 -80 -32 -100 -18 -11 -49 -20 -68
-20 -62 1 -90 39 -90 120 0 46 4 56 34 86 40 40 75 44 124 14z"/>
<path d="M9410 7904 c-11 -12 -10 -18 3 -32 16 -15 18 -15 34 0 13 14 14 20 3
32 -7 9 -16 16 -20 16 -4 0 -13 -7 -20 -16z"/>
<path d="M1140 7711 l0 -191 73 0 c95 0 137 20 156 76 18 52 1 91 -49 116 -20
10 -28 17 -18 18 27 0 50 43 46 86 -5 55 -38 76 -132 82 l-76 5 0 -192z m170
139 c37 -37 21 -91 -31 -109 -18 -6 -52 -11 -75 -11 l-44 0 0 70 0 70 65 0
c52 0 69 -4 85 -20z m-5 -154 c22 -9 37 -24 40 -39 18 -71 -22 -109 -120 -115
l-65 -4 0 86 0 86 55 0 c31 0 71 -6 90 -14z"/>
<path d="M3460 7888 c0 -25 59 -361 64 -365 15 -15 34 12 50 68 9 35 24 89 33
119 l16 55 14 -55 c36 -143 54 -190 71 -190 15 0 22 28 46 185 26 166 28 211
10 193 -3 -4 -16 -79 -29 -168 -14 -90 -26 -164 -28 -166 -2 -2 -18 50 -37
117 -25 89 -37 119 -48 117 -10 -2 -26 -43 -47 -116 -18 -62 -35 -115 -37
-117 -2 -2 -14 69 -27 158 -13 89 -25 165 -28 170 -7 12 -23 8 -23 -5z"/>
<path d="M5900 7711 l0 -191 73 0 c95 0 137 20 156 76 18 52 1 91 -49 116 -20
10 -28 17 -18 18 27 0 50 43 46 86 -5 55 -38 76 -132 82 l-76 5 0 -192z m170
139 c37 -37 21 -91 -31 -109 -18 -6 -52 -11 -75 -11 l-44 0 0 70 0 70 65 0
c52 0 69 -4 85 -20z m-5 -154 c22 -9 37 -24 40 -39 18 -71 -22 -109 -120 -115
l-65 -4 0 86 0 86 55 0 c31 0 71 -6 90 -14z"/>
<path d="M8314 7881 c-47 -29 -69 -83 -69 -171 0 -85 21 -140 68 -174 37 -27
97 -27 134 0 94 68 99 271 8 342 -35 28 -98 29 -141 3z m111 -13 c42 -19 65
-76 65 -159 0 -113 -37 -169 -110 -169 -65 0 -110 67 -110 163 0 75 16 122 51
151 33 28 64 32 104 14z"/>
<path d="M1523 7781 c-46 -29 -65 -64 -66 -119 -1 -65 25 -109 76 -133 23 -10
52 -19 64 -19 30 0 103 30 103 42 0 6 -8 7 -17 3 -10 -4 -43 -10 -74 -12 -51
-5 -59 -3 -87 23 -17 16 -34 41 -38 57 l-6 27 116 0 116 0 0 40 c0 60 -41 101
-106 107 -37 3 -57 -1 -81 -16z m138 -28 c10 -10 21 -33 25 -51 l7 -32 -101 0
c-56 0 -104 4 -107 10 -10 15 23 68 53 85 34 19 98 13 123 -12z"/>
<path d="M2193 7781 c-94 -59 -82 -212 19 -255 41 -17 50 -17 89 -5 61 20 89
64 89 141 0 52 -3 62 -33 94 -28 31 -41 37 -83 41 -37 3 -57 -1 -81 -16z m123
-20 c61 -37 69 -138 16 -193 -37 -40 -102 -40 -143 1 -25 26 -29 37 -29 86 0
51 3 60 34 91 40 40 75 44 122 15z"/>
<path d="M2556 7775 c-44 -30 -46 -30 -46 -5 0 11 -4 20 -10 20 -6 0 -10 -52
-10 -135 0 -113 2 -135 15 -135 12 0 15 18 15 105 l0 104 37 26 c45 30 82 32
114 6 22 -18 24 -28 27 -130 2 -61 8 -111 13 -111 5 0 9 52 9 115 0 110 -1
117 -25 140 -33 34 -90 34 -139 0z"/>
<path d="M3898 7783 c-21 -8 -38 -19 -38 -24 0 -13 12 -11 53 6 20 8 47 15 60
15 34 0 77 -37 77 -65 0 -20 -6 -23 -54 -29 -118 -15 -182 -76 -139 -133 32
-44 83 -51 145 -20 48 24 51 24 55 6 13 -47 23 -10 23 81 0 142 -23 181 -107
179 -21 0 -55 -7 -75 -16z m152 -158 c0 -40 -4 -47 -32 -65 -36 -22 -98 -26
-129 -10 -22 12 -25 48 -6 74 14 19 92 44 140 45 26 1 27 -1 27 -44z"/>
<path d="M4914 7788 c-12 -5 -27 -21 -33 -35 -21 -45 16 -81 104 -102 90 -22
118 -57 75 -96 -25 -22 -106 -23 -151 -1 -36 18 -49 20 -49 8 0 -17 85 -47
131 -47 80 0 130 45 109 99 -11 31 -16 33 -102 57 -81 23 -98 33 -98 60 0 43
86 64 144 34 34 -18 36 -18 36 -4 0 29 -120 50 -166 27z"/>
<path d="M6283 7781 c-46 -29 -65 -64 -66 -119 -1 -65 25 -109 76 -133 23 -10
52 -19 64 -19 30 0 103 30 103 42 0 6 -8 7 -17 3 -10 -4 -43 -10 -74 -12 -51
-5 -59 -3 -87 23 -17 16 -34 41 -38 57 l-6 27 116 0 116 0 0 40 c0 60 -41 101
-106 107 -37 3 -57 -1 -81 -16z m138 -28 c10 -10 21 -33 25 -51 l7 -32 -101 0
c-56 0 -104 4 -107 10 -10 15 23 68 53 85 34 19 98 13 123 -12z"/>
<path d="M6953 7781 c-94 -59 -82 -212 19 -255 41 -17 50 -17 89 -5 61 20 89
64 89 141 0 52 -3 62 -33 94 -28 31 -41 37 -83 41 -37 3 -57 -1 -81 -16z m123
-20 c61 -37 69 -138 16 -193 -37 -40 -102 -40 -143 1 -25 26 -29 37 -29 86 0
51 3 60 34 91 40 40 75 44 122 15z"/>
<path d="M7316 7775 c-44 -30 -46 -30 -46 -5 0 11 -4 20 -10 20 -6 0 -10 -52
-10 -135 0 -113 2 -135 15 -135 12 0 15 18 15 105 l0 104 37 26 c45 30 82 32
114 6 22 -18 24 -28 27 -130 2 -61 8 -111 13 -111 5 0 9 52 9 115 0 110 -1
117 -25 140 -33 34 -90 34 -139 0z"/>
<path d="M8735 7785 c-16 -9 -38 -25 -47 -36 -18 -21 -18 -21 -18 10 0 21 -5
31 -15 31 -13 0 -15 -22 -15 -135 0 -113 2 -135 15 -135 12 0 15 17 15 89 0
81 2 92 25 120 31 36 84 55 126 46 24 -6 30 -4 27 6 -7 20 -78 22 -113 4z"/>
<path d="M9696 7775 c-44 -30 -46 -30 -46 -5 0 11 -4 20 -10 20 -6 0 -10 -52
-10 -135 0 -113 2 -135 15 -135 12 0 15 18 15 105 l0 104 37 26 c45 30 82 32
114 6 22 -18 24 -28 27 -130 2 -61 8 -111 13 -111 5 0 9 52 9 115 0 110 -1
117 -25 140 -33 34 -90 34 -139 0z"/>
<path d="M10018 7783 c-21 -8 -38 -19 -38 -24 0 -13 12 -11 53 6 20 8 47 15
60 15 34 0 77 -37 77 -65 0 -20 -6 -23 -54 -29 -118 -15 -182 -76 -139 -133
32 -44 83 -51 145 -20 48 24 51 24 55 6 13 -47 23 -10 23 81 0 142 -23 181
-107 179 -21 0 -55 -7 -75 -16z m152 -158 c0 -40 -4 -47 -32 -65 -36 -22 -98
-26 -129 -10 -22 12 -25 48 -6 74 14 19 92 44 140 45 26 1 27 -1 27 -44z"/>
<path d="M10435 7785 c-16 -9 -38 -25 -47 -36 -18 -21 -18 -21 -18 10 0 21 -5
31 -15 31 -13 0 -15 -22 -15 -135 0 -113 2 -135 15 -135 12 0 15 17 15 89 0
81 2 92 25 120 31 36 84 55 126 46 24 -6 30 -4 27 6 -7 20 -78 22 -113 4z"/>
<path d="M1790 7786 c0 -1 29 -63 63 -137 35 -73 62 -142 59 -151 -9 -36 -58
-78 -91 -78 -17 0 -31 -4 -31 -10 0 -5 17 -10 38 -10 57 0 81 33 156 214 68
165 72 176 57 176 -5 0 -28 -46 -51 -102 -67 -162 -55 -160 -121 -20 -32 67
-62 122 -68 122 -6 0 -11 -2 -11 -4z"/>
<path d="M6550 7786 c0 -1 29 -63 63 -137 35 -73 62 -142 59 -151 -9 -36 -58
-78 -91 -78 -17 0 -31 -4 -31 -10 0 -5 17 -10 38 -10 57 0 81 33 156 214 68
165 72 176 57 176 -5 0 -28 -46 -51 -102 -67 -162 -55 -160 -121 -20 -32 67
-62 122 -68 122 -6 0 -11 -2 -11 -4z"/>
<path d="M9290 7780 c0 -6 28 -10 65 -10 l65 0 0 -125 c0 -104 2 -125 15 -125
13 0 15 22 15 135 l0 135 -80 0 c-47 0 -80 -4 -80 -10z"/>
<path d="M10630 7786 c0 -1 29 -63 63 -137 35 -73 62 -142 59 -151 -9 -36 -58
-78 -91 -78 -17 0 -31 -4 -31 -10 0 -5 17 -10 38 -10 57 0 81 33 156 214 68
165 72 176 57 176 -5 0 -28 -46 -51 -102 -67 -162 -55 -160 -121 -20 -32 67
-62 122 -68 122 -6 0 -11 -2 -11 -4z"/>
<path d="M5300 7575 c-16 -19 -6 -45 21 -52 12 -4 18 -11 15 -20 -3 -8 -6 -19
-6 -24 0 -6 -14 -23 -32 -39 -37 -34 -32 -50 7 -24 34 22 55 64 55 112 0 55
-32 81 -60 47z"/>
<path d="M5932 6574 c-47 -32 -52 -60 -52 -269 0 -209 5 -237 52 -269 29 -21
107 -21 136 0 47 32 52 60 52 269 0 209 -5 237 -52 269 -12 9 -43 16 -68 16
-25 0 -56 -7 -68 -16z"/>
<path d="M5335 6291 c-47 -20 -78 -82 -68 -133 5 -25 41 -69 142 -171 75 -77
148 -145 163 -153 88 -46 191 29 173 124 -5 30 -33 63 -143 175 -76 76 -149
145 -164 153 -30 15 -72 17 -103 5z"/>
<path d="M6565 6286 c-16 -7 -92 -76 -167 -153 -110 -112 -138 -146 -143 -176
-15 -79 62 -158 137 -142 46 10 324 285 338 333 13 48 -7 101 -49 129 -38 26
-72 28 -116 9z"/>
<path d="M3515 6139 c-101 -10 -283 -42 -363 -63 -102 -27 -125 -55 -157 -189
-48 -197 -60 -316 -59 -587 0 -273 10 -376 60 -600 59 -267 187 -579 337 -823
354 -576 950 -1059 1548 -1252 138 -44 159 -44 207 -1 33 31 37 39 37 85 0 74
-29 100 -166 145 -637 211 -1223 730 -1535 1360 -35 72 -64 133 -64 138 0 4
267 8 593 8 l592 0 275 -282 c151 -155 293 -294 314 -310 46 -33 88 -36 134
-8 43 27 67 77 58 125 -6 28 -27 57 -87 119 l-79 83 0 692 c0 380 3 691 8 691
14 0 221 -167 332 -267 106 -97 114 -103 155 -103 53 0 98 34 115 85 19 58 0
93 -103 191 -423 403 -942 660 -1503 744 -160 24 -505 34 -649 19z m478 -245
l107 -6 0 -371 0 -372 -360 360 c-198 198 -356 363 -352 366 7 8 166 27 267
32 63 4 159 1 338 -9z m617 -134 c47 -17 136 -54 198 -82 l112 -51 0 -651 0
-651 -285 285 -285 285 0 472 0 472 88 -24 c48 -13 125 -38 172 -55z m-855
-610 l550 -550 -517 0 -517 0 -15 53 c-22 80 -53 232 -67 337 -18 128 -18 489
0 613 7 53 14 97 15 97 1 0 249 -247 551 -550z"/>
<path d="M7995 6140 c-673 -62 -1276 -359 -1770 -871 -464 -480 -722 -1020
-795 -1659 -25 -219 -9 -590 35 -802 43 -204 55 -219 217 -258 487 -118 1073
-72 1568 125 796 316 1469 1043 1705 1843 85 289 109 463 109 777 0 256 -13
388 -57 581 -25 111 -43 146 -88 173 -32 20 -169 51 -330 77 -111 18 -466 26
-594 14z m523 -252 c56 -6 102 -14 102 -17 0 -3 -196 -202 -435 -441 l-435
-435 0 432 c0 402 1 432 18 437 132 40 496 52 750 24z m-1008 -611 l0 -522
-400 -400 -400 -400 0 715 0 715 95 67 c109 78 274 175 384 226 72 33 297 121
314 122 4 0 7 -235 7 -523z m1311 223 c32 -361 -23 -735 -163 -1102 l-29 -78
-607 0 -607 0 690 690 690 690 7 -32 c4 -18 12 -94 19 -168z m-2351 -1057 l0
-728 -387 -393 c-316 -322 -388 -391 -394 -375 -18 49 -32 287 -26 466 17 576
220 1094 605 1547 52 61 193 210 199 210 2 0 3 -327 3 -727z m2019 -395 c-70
-134 -272 -391 -431 -550 l-118 -118 -727 0 c-399 0 -724 2 -722 4 2 3 156
158 342 345 l338 341 665 0 665 0 -12 -22z m-889 -922 c0 -9 -217 -131 -304
-171 -320 -149 -669 -225 -1037 -225 -152 0 -338 13 -378 26 -10 3 48 68 169
189 l185 185 682 0 c376 0 683 -2 683 -4z"/>
<path d="M4125 3836 c-84 -38 -103 -130 -40 -196 90 -94 246 16 190 133 -29
62 -94 89 -150 63z"/>
<path d="M4424 3576 c-71 -31 -98 -123 -53 -180 23 -29 149 -117 265 -184 160
-93 456 -212 527 -212 136 0 160 188 29 236 -259 93 -389 155 -557 264 -130
85 -164 97 -211 76z"/>
</g>
</svg>
